<?xml version="1.0" encoding="utf-8"?>
<!-- Generator: Adobe Illustrator 25.0.1, SVG Export Plug-In . SVG Version: 6.00 Build 0)  -->
<svg version="1.1" id="Layer_1" xmlns="http://www.w3.org/2000/svg" xmlns:xlink="http://www.w3.org/1999/xlink" x="0px" y="0px"
	 viewBox="0 0 415.33 100" style="enable-background:new 0 0 415.33 100;" xml:space="preserve">
<style type="text/css">
	.st0{fill:#606061;}
	.st1{fill:#BA1F40;}
	.st2{fill:#FFFFFF;}
	.st3{fill:#BB0E3D;}
	.st4{fill:#606060;}
</style>
<g>
	<g>
		<path class="st0" d="M97.99,50l-15-27H28.76c-3.19,0-5.77,2.59-5.77,5.79v42.43c0,3.2,2.58,5.79,5.77,5.79h54.23L97.99,50z"/>
		<path class="st1" d="M96.5,25.81C95.44,24.07,93.54,23,91.48,23H87l15.2,27l-15.2,27h4.49c2.06,0,3.96-1.07,5.02-2.81L110,50
			L96.5,25.81z"/>
	</g>
	<g>
		<rect x="54.99" y="38" class="st2" width="4" height="24"/>
		<polygon class="st2" points="46.99,38 46.99,55.6 35.99,38 31.99,38 31.99,62 35.99,62 35.99,44.4 46.99,62 50.99,62 50.99,38 		
			"/>
		<polygon class="st2" points="77.99,38 77.99,48 66.99,48 66.99,38 62.99,38 62.99,62 66.99,62 66.99,52 77.99,52 77.99,62 
			81.99,62 81.99,38 		"/>
	</g>
</g>
<g>
	<g>
		<path class="st3" d="M130.85,31h2.5v11.18h-2.5l-5.33-7.01v7.01h-2.5V31h2.34l5.49,7.2V31z"/>
		<path class="st3" d="M144.06,42.18l-1.04-2.42h-4.69l-1.04,2.42h-2.66L139.47,31h2.42l4.83,11.18H144.06z M140.69,34.33
			l-1.41,3.25h2.8L140.69,34.33z"/>
		<path class="st3" d="M151.94,33.16v9.02h-2.5v-9.02h-3.17V31h8.83v2.16H151.94z"/>
		<path class="st3" d="M156.93,31h2.5v11.18h-2.5V31z"/>
		<path class="st3" d="M171.58,40.64c-1.13,1.1-2.52,1.66-4.18,1.66s-3.05-0.55-4.18-1.66c-1.13-1.1-1.7-2.48-1.7-4.12
			c0-1.64,0.57-3.02,1.7-4.12c1.13-1.1,2.52-1.66,4.18-1.66s3.04,0.55,4.18,1.66c1.13,1.1,1.7,2.48,1.7,4.12
			C173.28,38.16,172.71,39.54,171.58,40.64z M170.74,36.53c0-1-0.32-1.85-0.96-2.55c-0.64-0.7-1.43-1.06-2.36-1.06
			s-1.72,0.35-2.36,1.06c-0.64,0.7-0.96,1.55-0.96,2.55c0,1,0.32,1.85,0.96,2.54c0.64,0.7,1.43,1.05,2.36,1.05s1.72-0.35,2.36-1.05
			C170.42,38.37,170.74,37.52,170.74,36.53z"/>
		<path class="st3" d="M183.22,31h2.5v11.18h-2.5l-5.33-7.01v7.01h-2.5V31h2.34l5.49,7.2V31z"/>
		<path class="st3" d="M196.43,42.18l-1.04-2.42h-4.69l-1.04,2.42h-2.66L191.84,31h2.42l4.83,11.18H196.43z M193.06,34.33
			l-1.41,3.25h2.8L193.06,34.33z"/>
		<path class="st3" d="M200.38,42.18V31h2.5v8.96h4.77v2.22H200.38z"/>
		<path class="st3" d="M218.83,39.98c1.23,0,2.23-0.49,3.01-1.46l1.6,1.65c-1.27,1.43-2.77,2.14-4.49,2.14s-3.14-0.54-4.26-1.63
			c-1.11-1.09-1.67-2.46-1.67-4.12c0-1.66,0.57-3.04,1.7-4.15c1.14-1.11,2.53-1.66,4.17-1.66c1.83,0,3.37,0.7,4.61,2.1l-1.55,1.76
			c-0.79-0.98-1.77-1.47-2.94-1.47c-0.94,0-1.74,0.31-2.41,0.92c-0.67,0.61-1,1.44-1,2.48s0.31,1.88,0.94,2.5
			C217.17,39.66,217.94,39.98,218.83,39.98z"/>
		<path class="st3" d="M233.3,42.18l-1.04-2.42h-4.69l-1.04,2.42h-2.66L228.7,31h2.42l4.83,11.18H233.3z M229.92,34.33l-1.41,3.25
			h2.8L229.92,34.33z"/>
		<path class="st3" d="M245.07,31h2.5v11.18h-2.5l-5.33-7.01v7.01h-2.5V31h2.34l5.49,7.2V31z"/>
		<path class="st3" d="M255.46,39.98c1.23,0,2.23-0.49,3.01-1.46l1.6,1.65c-1.27,1.43-2.77,2.14-4.49,2.14s-3.14-0.54-4.26-1.63
			c-1.12-1.09-1.67-2.46-1.67-4.12c0-1.66,0.57-3.04,1.7-4.15c1.14-1.11,2.52-1.66,4.17-1.66c1.83,0,3.37,0.7,4.61,2.1l-1.55,1.76
			c-0.79-0.98-1.77-1.47-2.94-1.47c-0.94,0-1.74,0.31-2.41,0.92c-0.67,0.61-1,1.44-1,2.48s0.32,1.88,0.94,2.5
			C253.8,39.66,254.56,39.98,255.46,39.98z"/>
		<path class="st3" d="M270.09,31v2.22h-5.57v2.3h5.01v2.13h-5.01v2.32h5.74v2.21h-8.24V31H270.09z"/>
		<path class="st3" d="M281.57,34.71c0,1.79-0.71,2.95-2.13,3.47l2.83,4h-3.07l-2.48-3.57h-1.73v3.57h-2.5V31h4.24
			c1.74,0,2.98,0.29,3.72,0.88S281.57,33.41,281.57,34.71z M278.56,36.04c0.31-0.28,0.46-0.72,0.46-1.32s-0.16-1.02-0.48-1.24
			s-0.88-0.34-1.68-0.34h-1.87v3.31h1.82C277.67,36.46,278.25,36.32,278.56,36.04z"/>
		<path class="st3" d="M288.35,31h2.5v11.18h-2.5V31z"/>
		<path class="st3" d="M301.42,31h2.5v11.18h-2.5l-5.33-7.01v7.01h-2.5V31h2.34l5.49,7.2V31z"/>
		<path class="st3" d="M309.29,33.23c-0.24,0.2-0.36,0.46-0.36,0.78s0.15,0.58,0.44,0.78c0.29,0.19,0.97,0.42,2.03,0.68
			s1.89,0.65,2.47,1.18c0.59,0.52,0.88,1.29,0.88,2.29c0,1-0.38,1.82-1.13,2.44s-1.74,0.94-2.97,0.94c-1.77,0-3.37-0.66-4.78-1.97
			l1.49-1.82c1.21,1.06,2.32,1.58,3.34,1.58c0.46,0,0.82-0.1,1.08-0.3c0.26-0.2,0.39-0.46,0.39-0.8s-0.14-0.6-0.42-0.8
			s-0.83-0.4-1.65-0.6c-1.3-0.31-2.25-0.71-2.86-1.21s-0.9-1.27-0.9-2.34s0.38-1.88,1.14-2.46c0.76-0.58,1.71-0.86,2.86-0.86
			c0.75,0,1.49,0.13,2.24,0.38c0.75,0.26,1.4,0.62,1.95,1.09l-1.26,1.82c-0.97-0.74-1.97-1.1-3.01-1.1
			C309.85,32.94,309.53,33.03,309.29,33.23z"/>
		<path class="st3" d="M321.52,33.16v9.02h-2.5v-9.02h-3.17V31h8.83v2.16H321.52z"/>
		<path class="st3" d="M326.51,31h2.5v11.18h-2.5V31z"/>
		<path class="st3" d="M336.49,33.16v9.02H334v-9.02h-3.17V31h8.83v2.16H336.49z"/>
		<path class="st3" d="M344.45,39.3c0.42,0.52,0.98,0.78,1.68,0.78s1.26-0.26,1.67-0.78c0.41-0.52,0.62-1.22,0.62-2.12V31h2.5v6.26
			c0,1.62-0.45,2.87-1.34,3.74c-0.9,0.87-2.04,1.3-3.44,1.3c-1.4,0-2.55-0.44-3.45-1.31c-0.9-0.87-1.35-2.12-1.35-3.73V31h2.5v6.18
			C343.82,38.07,344.03,38.78,344.45,39.3z"/>
		<path class="st3" d="M358.24,33.16v9.02h-2.5v-9.02h-3.17V31h8.83v2.16H358.24z"/>
		<path class="st3" d="M371.29,31v2.22h-5.57v2.3h5.01v2.13h-5.01v2.32h5.74v2.21h-8.24V31H371.29z"/>
	</g>
</g>
<g>
	<path class="st4" d="M125.51,67.51c-1.15-0.62-2.06-1.48-2.72-2.58c-0.66-1.1-0.99-2.34-0.99-3.73s0.33-2.63,0.99-3.73
		c0.66-1.1,1.57-1.96,2.72-2.58s2.45-0.93,3.89-0.93c1.21,0,2.31,0.21,3.29,0.64c0.98,0.43,1.8,1.04,2.47,1.84l-2.08,1.92
		c-0.95-1.09-2.12-1.64-3.52-1.64c-0.87,0-1.64,0.19-2.32,0.57c-0.68,0.38-1.21,0.91-1.59,1.59c-0.38,0.68-0.57,1.45-0.57,2.32
		c0,0.87,0.19,1.64,0.57,2.32c0.38,0.68,0.91,1.21,1.59,1.59c0.68,0.38,1.45,0.57,2.32,0.57c1.4,0,2.57-0.55,3.52-1.66l2.08,1.92
		c-0.67,0.81-1.49,1.43-2.48,1.86c-0.99,0.43-2.09,0.64-3.3,0.64C127.95,68.45,126.66,68.13,125.51,67.51z"/>
	<path class="st4" d="M138.81,67.66c-0.9-0.47-1.6-1.13-2.11-1.97c-0.51-0.84-0.76-1.79-0.76-2.86s0.25-2.02,0.76-2.86
		c0.51-0.84,1.21-1.5,2.11-1.97c0.9-0.47,1.92-0.71,3.05-0.71c1.13,0,2.15,0.24,3.04,0.71c0.89,0.47,1.59,1.13,2.1,1.97
		c0.51,0.84,0.76,1.79,0.76,2.86s-0.25,2.02-0.76,2.86c-0.51,0.84-1.21,1.5-2.1,1.97c-0.89,0.47-1.91,0.71-3.04,0.71
		C140.72,68.37,139.71,68.13,138.81,67.66z M143.83,65c0.51-0.54,0.77-1.26,0.77-2.17s-0.26-1.63-0.77-2.17
		c-0.51-0.54-1.17-0.81-1.97-0.81c-0.8,0-1.46,0.27-1.98,0.81c-0.52,0.54-0.78,1.26-0.78,2.17s0.26,1.63,0.78,2.17
		c0.52,0.54,1.18,0.81,1.98,0.81C142.66,65.8,143.31,65.54,143.83,65z"/>
	<path class="st4" d="M159.6,58.49c0.82,0.8,1.23,1.99,1.23,3.56v6.16h-3.12v-5.68c0-0.85-0.19-1.49-0.56-1.91s-0.91-0.63-1.62-0.63
		c-0.79,0-1.41,0.24-1.88,0.73c-0.47,0.49-0.7,1.21-0.7,2.17v5.32h-3.12V57.45h2.98v1.26c0.41-0.45,0.93-0.8,1.54-1.05
		c0.61-0.25,1.29-0.37,2.02-0.37C157.71,57.29,158.78,57.69,159.6,58.49z"/>
	<path class="st4" d="M167.08,57.69h2.76v2.4h-2.68v8.12h-3.12v-8.12h-1.66v-2.4h1.66v-0.48c0-1.23,0.36-2.2,1.09-2.92
		s1.75-1.08,3.07-1.08c0.47,0,0.91,0.05,1.33,0.15c0.42,0.1,0.77,0.24,1.05,0.43l-0.82,2.26c-0.36-0.25-0.78-0.38-1.26-0.38
		c-0.95,0-1.42,0.52-1.42,1.56V57.69z M171.4,53.37h3.12v14.84h-3.12V53.37z"/>
	<path class="st4" d="M188.26,57.45v10.76h-2.96v-1.28c-0.41,0.47-0.91,0.82-1.48,1.07c-0.57,0.25-1.19,0.37-1.86,0.37
		c-1.41,0-2.53-0.41-3.36-1.22c-0.83-0.81-1.24-2.02-1.24-3.62v-6.08h3.12v5.62c0,1.73,0.73,2.6,2.18,2.6c0.75,0,1.35-0.24,1.8-0.73
		c0.45-0.49,0.68-1.21,0.68-2.17v-5.32H188.26z"/>
	<path class="st4" d="M201.64,63.71h-8.14c0.15,0.67,0.49,1.19,1.04,1.58c0.55,0.39,1.23,0.58,2.04,0.58c0.56,0,1.06-0.08,1.49-0.25
		c0.43-0.17,0.84-0.43,1.21-0.79l1.66,1.8c-1.01,1.16-2.49,1.74-4.44,1.74c-1.21,0-2.29-0.24-3.22-0.71
		c-0.93-0.47-1.65-1.13-2.16-1.97c-0.51-0.84-0.76-1.79-0.76-2.86c0-1.05,0.25-2,0.75-2.85s1.19-1.51,2.06-1.98
		c0.87-0.47,1.85-0.71,2.93-0.71c1.05,0,2.01,0.23,2.86,0.68c0.85,0.45,1.52,1.1,2.01,1.95c0.49,0.85,0.73,1.83,0.73,2.95
		C201.7,62.91,201.68,63.19,201.64,63.71z M194.34,60.25c-0.48,0.4-0.77,0.95-0.88,1.64h5.3c-0.11-0.68-0.4-1.22-0.88-1.63
		c-0.48-0.41-1.07-0.61-1.76-0.61C195.41,59.65,194.81,59.85,194.34,60.25z"/>
	<path class="st4" d="M213.55,58.49c0.82,0.8,1.23,1.99,1.23,3.56v6.16h-3.12v-5.68c0-0.85-0.19-1.49-0.56-1.91
		s-0.91-0.63-1.62-0.63c-0.79,0-1.41,0.24-1.88,0.73c-0.47,0.49-0.7,1.21-0.7,2.17v5.32h-3.12V57.45h2.98v1.26
		c0.41-0.45,0.93-0.8,1.54-1.05c0.61-0.25,1.29-0.37,2.02-0.37C211.65,57.29,212.73,57.69,213.55,58.49z"/>
	<path class="st4" d="M219.83,67.66c-0.91-0.47-1.63-1.13-2.14-1.97c-0.51-0.84-0.77-1.79-0.77-2.86s0.26-2.02,0.77-2.86
		c0.51-0.84,1.23-1.5,2.14-1.97c0.91-0.47,1.94-0.71,3.09-0.71c1.13,0,2.12,0.24,2.97,0.71c0.85,0.47,1.46,1.15,1.85,2.03l-2.42,1.3
		c-0.56-0.99-1.37-1.48-2.42-1.48c-0.81,0-1.49,0.27-2.02,0.8s-0.8,1.26-0.8,2.18s0.27,1.65,0.8,2.18s1.21,0.8,2.02,0.8
		c1.07,0,1.87-0.49,2.42-1.48l2.42,1.32c-0.39,0.85-1,1.52-1.85,2c-0.85,0.48-1.84,0.72-2.97,0.72
		C221.77,68.37,220.74,68.13,219.83,67.66z"/>
	<path class="st4" d="M239.88,63.71h-8.14c0.15,0.67,0.49,1.19,1.04,1.58c0.55,0.39,1.23,0.58,2.04,0.58c0.56,0,1.06-0.08,1.49-0.25
		c0.43-0.17,0.84-0.43,1.21-0.79l1.66,1.8c-1.01,1.16-2.49,1.74-4.44,1.74c-1.21,0-2.29-0.24-3.22-0.71
		c-0.93-0.47-1.65-1.13-2.16-1.97c-0.51-0.84-0.76-1.79-0.76-2.86c0-1.05,0.25-2,0.75-2.85s1.19-1.51,2.06-1.98
		c0.87-0.47,1.85-0.71,2.93-0.71c1.05,0,2.01,0.23,2.86,0.68c0.85,0.45,1.52,1.1,2.01,1.95c0.49,0.85,0.73,1.83,0.73,2.95
		C239.94,62.91,239.92,63.19,239.88,63.71z M232.58,60.25c-0.48,0.4-0.77,0.95-0.88,1.64h5.3c-0.11-0.68-0.4-1.22-0.88-1.63
		c-0.48-0.41-1.07-0.61-1.76-0.61C233.65,59.65,233.06,59.85,232.58,60.25z"/>
	<path class="st4" d="M247.9,54.21h6.36c1.52,0,2.86,0.29,4.03,0.87s2.07,1.4,2.72,2.45c0.65,1.05,0.97,2.28,0.97,3.68
		c0,1.4-0.32,2.63-0.97,3.68c-0.65,1.05-1.55,1.87-2.72,2.45s-2.51,0.87-4.03,0.87h-6.36V54.21z M254.1,65.54
		c1.4,0,2.52-0.39,3.35-1.17s1.25-1.84,1.25-3.17c0-1.33-0.42-2.39-1.25-3.17s-1.95-1.17-3.35-1.17h-2.96v8.68H254.1z"/>
	<path class="st4" d="M272.38,58.48c0.89,0.79,1.34,1.99,1.34,3.59v6.14h-2.92v-1.34c-0.59,1-1.68,1.5-3.28,1.5
		c-0.83,0-1.54-0.14-2.15-0.42c-0.61-0.28-1.07-0.67-1.39-1.16c-0.32-0.49-0.48-1.05-0.48-1.68c0-1,0.38-1.79,1.13-2.36
		c0.75-0.57,1.92-0.86,3.49-0.86h2.48c0-0.68-0.21-1.2-0.62-1.57c-0.41-0.37-1.03-0.55-1.86-0.55c-0.57,0-1.14,0.09-1.69,0.27
		c-0.55,0.18-1.02,0.42-1.41,0.73l-1.12-2.18c0.59-0.41,1.29-0.73,2.11-0.96c0.82-0.23,1.66-0.34,2.53-0.34
		C270.2,57.29,271.48,57.68,272.38,58.48z M269.72,65.9c0.41-0.25,0.71-0.61,0.88-1.09v-1.1h-2.14c-1.28,0-1.92,0.42-1.92,1.26
		c0,0.4,0.16,0.72,0.47,0.95s0.74,0.35,1.29,0.35C268.83,66.26,269.3,66.14,269.72,65.9z"/>
	<path class="st4" d="M283.48,67.69c-0.31,0.23-0.68,0.4-1.13,0.51c-0.45,0.11-0.92,0.17-1.41,0.17c-1.28,0-2.27-0.33-2.97-0.98
		c-0.7-0.65-1.05-1.61-1.05-2.88v-4.42h-1.66v-2.4h1.66v-2.62h3.12v2.62h2.68v2.4h-2.68v4.38c0,0.45,0.12,0.8,0.35,1.05
		c0.23,0.25,0.56,0.37,0.99,0.37c0.49,0,0.91-0.13,1.26-0.4L283.48,67.69z"/>
	<path class="st4" d="M293.42,58.48c0.89,0.79,1.34,1.99,1.34,3.59v6.14h-2.92v-1.34c-0.59,1-1.68,1.5-3.28,1.5
		c-0.83,0-1.54-0.14-2.15-0.42c-0.61-0.28-1.07-0.67-1.39-1.16c-0.32-0.49-0.48-1.05-0.48-1.68c0-1,0.38-1.79,1.13-2.36
		c0.75-0.57,1.92-0.86,3.49-0.86h2.48c0-0.68-0.21-1.2-0.62-1.57c-0.41-0.37-1.03-0.55-1.86-0.55c-0.57,0-1.14,0.09-1.69,0.27
		c-0.55,0.18-1.02,0.42-1.41,0.73l-1.12-2.18c0.59-0.41,1.29-0.73,2.11-0.96c0.82-0.23,1.66-0.34,2.53-0.34
		C291.24,57.29,292.52,57.68,293.42,58.48z M290.76,65.9c0.41-0.25,0.71-0.61,0.88-1.09v-1.1h-2.14c-1.28,0-1.92,0.42-1.92,1.26
		c0,0.4,0.16,0.72,0.47,0.95s0.74,0.35,1.29,0.35C289.87,66.26,290.34,66.14,290.76,65.9z"/>
	<path class="st4" d="M312.75,54.83c0.91,0.41,1.62,1,2.11,1.76c0.49,0.76,0.74,1.66,0.74,2.7c0,1.03-0.25,1.92-0.74,2.69
		s-1.2,1.35-2.11,1.76c-0.91,0.41-1.99,0.61-3.23,0.61h-2.82v3.86h-3.24v-14h6.06C310.76,54.21,311.83,54.41,312.75,54.83z
		 M311.56,61.08c0.51-0.42,0.76-1.02,0.76-1.79c0-0.79-0.25-1.39-0.76-1.81s-1.25-0.63-2.22-0.63h-2.64v4.86h2.64
		C310.31,61.71,311.05,61.5,311.56,61.08z"/>
	<path class="st4" d="M317.88,53.37h3.12v14.84h-3.12V53.37z"/>
	<path class="st4" d="M332.07,58.48c0.89,0.79,1.34,1.99,1.34,3.59v6.14h-2.92v-1.34c-0.59,1-1.68,1.5-3.28,1.5
		c-0.83,0-1.54-0.14-2.15-0.42c-0.61-0.28-1.07-0.67-1.39-1.16c-0.32-0.49-0.48-1.05-0.48-1.68c0-1,0.38-1.79,1.13-2.36
		c0.75-0.57,1.92-0.86,3.49-0.86h2.48c0-0.68-0.21-1.2-0.62-1.57c-0.41-0.37-1.03-0.55-1.86-0.55c-0.57,0-1.14,0.09-1.69,0.27
		c-0.55,0.18-1.02,0.42-1.41,0.73l-1.12-2.18c0.59-0.41,1.29-0.73,2.11-0.96c0.82-0.23,1.66-0.34,2.53-0.34
		C329.9,57.29,331.18,57.68,332.07,58.48z M329.41,65.9c0.41-0.25,0.71-0.61,0.88-1.09v-1.1h-2.14c-1.28,0-1.92,0.42-1.92,1.26
		c0,0.4,0.16,0.72,0.47,0.95s0.74,0.35,1.29,0.35C328.53,66.26,329,66.14,329.41,65.9z"/>
	<path class="st4" d="M343.17,67.69c-0.31,0.23-0.68,0.4-1.13,0.51c-0.45,0.11-0.92,0.17-1.41,0.17c-1.28,0-2.27-0.33-2.97-0.98
		c-0.7-0.65-1.05-1.61-1.05-2.88v-4.42h-1.66v-2.4h1.66v-2.62h3.12v2.62h2.68v2.4h-2.68v4.38c0,0.45,0.12,0.8,0.35,1.05
		c0.23,0.25,0.56,0.37,0.99,0.37c0.49,0,0.91-0.13,1.26-0.4L343.17,67.69z"/>
	<path class="st4" d="M348.35,57.69h2.76v2.4h-2.68v8.12h-3.12v-8.12h-1.66v-2.4h1.66v-0.48c0-1.23,0.36-2.2,1.09-2.92
		s1.75-1.08,3.07-1.08c0.47,0,0.91,0.05,1.33,0.15c0.42,0.1,0.77,0.24,1.05,0.43l-0.82,2.26c-0.36-0.25-0.78-0.38-1.26-0.38
		c-0.95,0-1.42,0.52-1.42,1.56V57.69z"/>
	<path class="st4" d="M354.6,67.66c-0.9-0.47-1.6-1.13-2.11-1.97c-0.51-0.84-0.76-1.79-0.76-2.86s0.25-2.02,0.76-2.86
		c0.51-0.84,1.21-1.5,2.11-1.97c0.9-0.47,1.92-0.71,3.05-0.71c1.13,0,2.15,0.24,3.04,0.71c0.89,0.47,1.59,1.13,2.1,1.97
		c0.51,0.84,0.76,1.79,0.76,2.86s-0.25,2.02-0.76,2.86c-0.51,0.84-1.21,1.5-2.1,1.97c-0.89,0.47-1.91,0.71-3.04,0.71
		C356.52,68.37,355.51,68.13,354.6,67.66z M359.63,65c0.51-0.54,0.77-1.26,0.77-2.17s-0.26-1.63-0.77-2.17
		c-0.51-0.54-1.17-0.81-1.97-0.81c-0.8,0-1.46,0.27-1.98,0.81c-0.52,0.54-0.78,1.26-0.78,2.17s0.26,1.63,0.78,2.17
		c0.52,0.54,1.18,0.81,1.98,0.81C358.46,65.8,359.11,65.54,359.63,65z"/>
	<path class="st4" d="M370.12,57.69c0.63-0.27,1.36-0.4,2.19-0.4v2.88c-0.35-0.03-0.58-0.04-0.7-0.04c-0.89,0-1.59,0.25-2.1,0.75
		c-0.51,0.5-0.76,1.25-0.76,2.25v5.08h-3.12V57.45h2.98v1.42C368.99,58.35,369.49,57.95,370.12,57.69z"/>
	<path class="st4" d="M391.16,58.48c0.79,0.79,1.19,1.98,1.19,3.57v6.16h-3.12v-5.68c0-0.85-0.18-1.49-0.53-1.91
		s-0.86-0.63-1.51-0.63c-0.73,0-1.31,0.24-1.74,0.71c-0.43,0.47-0.64,1.18-0.64,2.11v5.4h-3.12v-5.68c0-1.69-0.68-2.54-2.04-2.54
		c-0.72,0-1.29,0.24-1.72,0.71c-0.43,0.47-0.64,1.18-0.64,2.11v5.4h-3.12V57.45h2.98v1.24c0.4-0.45,0.89-0.8,1.47-1.04
		s1.22-0.36,1.91-0.36c0.76,0,1.45,0.15,2.06,0.45c0.61,0.3,1.11,0.74,1.48,1.31c0.44-0.56,1-0.99,1.67-1.3
		c0.67-0.31,1.41-0.46,2.21-0.46C389.3,57.29,390.37,57.68,391.16,58.48z"/>
</g>
</svg>
