<?xml version="1.0" encoding="utf-8"?>
<!-- Generator: Adobe Illustrator 23.0.0, SVG Export Plug-In . SVG Version: 6.00 Build 0)  -->
<svg version="1.1" id="Layer_1" xmlns="http://www.w3.org/2000/svg" xmlns:xlink="http://www.w3.org/1999/xlink" x="0px" y="0px"
	 viewBox="0 0 612 792" style="enable-background:new 0 0 612 792;" xml:space="preserve">
<style type="text/css">
	.st0{font-family:'MongolianBaiti';}
	.st1{font-size:63.4592px;}
	.st2{letter-spacing:1.01;}
	.st3{font-size:28px;}
	.st4{fill:#ADAFB1;}
</style>
<g>
	<g>
		<defs>
			<rect id="SVGID_1_" x="118.05" y="237" width="358.8" height="190.8"/>
		</defs>
		<clipPath id="SVGID_2_">
			<use xlink:href="#SVGID_1_"  style="overflow:visible;"/>
		</clipPath>
	</g>
	<g>
		<defs>
			<rect id="SVGID_3_" x="118.05" y="237" width="358.8" height="190.8"/>
		</defs>
		<clipPath id="SVGID_4_">
			<use xlink:href="#SVGID_3_"  style="overflow:visible;"/>
		</clipPath>
	</g>
	<g>
		<defs>
			<rect id="SVGID_5_" x="118.05" y="237" width="358.8" height="190.8"/>
		</defs>
		<clipPath id="SVGID_6_">
			<use xlink:href="#SVGID_5_"  style="overflow:visible;"/>
		</clipPath>
	</g>
	<g>
		<defs>
			<rect id="SVGID_7_" x="118.05" y="237" width="358.8" height="190.8"/>
		</defs>
		<clipPath id="SVGID_8_">
			<use xlink:href="#SVGID_7_"  style="overflow:visible;"/>
		</clipPath>
	</g>
	<g>
		<defs>
			<rect id="SVGID_9_" x="118.05" y="237" width="358.8" height="190.8"/>
		</defs>
		<clipPath id="SVGID_10_">
			<use xlink:href="#SVGID_9_"  style="overflow:visible;"/>
		</clipPath>
	</g>
	<g>
		<defs>
			<rect id="SVGID_11_" x="118.05" y="237" width="358.8" height="190.8"/>
		</defs>
		<clipPath id="SVGID_12_">
			<use xlink:href="#SVGID_11_"  style="overflow:visible;"/>
		</clipPath>
	</g>
	<g>
		<defs>
			<rect id="SVGID_13_" x="118.05" y="237" width="358.8" height="190.8"/>
		</defs>
		<clipPath id="SVGID_14_">
			<use xlink:href="#SVGID_13_"  style="overflow:visible;"/>
		</clipPath>
	</g>
	<g>
		<defs>
			<rect id="SVGID_15_" x="118.05" y="237" width="358.8" height="190.8"/>
		</defs>
		<clipPath id="SVGID_16_">
			<use xlink:href="#SVGID_15_"  style="overflow:visible;"/>
		</clipPath>
	</g>
	<g>
		<defs>
			<rect id="SVGID_17_" x="118.05" y="237" width="358.8" height="190.8"/>
		</defs>
		<clipPath id="SVGID_18_">
			<use xlink:href="#SVGID_17_"  style="overflow:visible;"/>
		</clipPath>
	</g>
	<g>
		<defs>
			<rect id="SVGID_19_" x="118.05" y="237" width="358.8" height="190.8"/>
		</defs>
		<clipPath id="SVGID_20_">
			<use xlink:href="#SVGID_19_"  style="overflow:visible;"/>
		</clipPath>
	</g>
	<g>
		<defs>
			<rect id="SVGID_21_" x="118.05" y="237" width="358.8" height="190.8"/>
		</defs>
		<clipPath id="SVGID_22_">
			<use xlink:href="#SVGID_21_"  style="overflow:visible;"/>
		</clipPath>
	</g>
	<g>
		<defs>
			<rect id="SVGID_23_" x="118.05" y="237" width="358.8" height="190.8"/>
		</defs>
		<clipPath id="SVGID_24_">
			<use xlink:href="#SVGID_23_"  style="overflow:visible;"/>
		</clipPath>
	</g>
</g>
<text transform="matrix(0.9904 0 0 1 139.2729 360.2603)" class="st0 st1 st2">Confluence</text>
<text transform="matrix(0.9564 0 0 1 118.0454 402.6895)" class="st0 st3">Uncovering breast cancer genetics </text>
<path class="st4" d="M285.36,233.25v47.7c1.41,0.46,2.83,0.83,4.25,1.12v-49.95C288.19,232.41,286.77,232.79,285.36,233.25"/>
<path class="st4" d="M265.08,245.4v23.39c1.41,1.19,2.82,2.32,4.25,3.4v-30.2C267.9,243.07,266.48,244.21,265.08,245.4"/>
<path class="st4" d="M330.24,245.4v23.39c-1.41,1.19-2.82,2.32-4.25,3.4v-30.2C327.42,243.07,328.84,244.21,330.24,245.4"/>
<path class="st4" d="M233.39,245.63c-5.97-5.84-12.23-11.45-19.09-16.08c-12.3-8.3-24.92-12.34-38.61-12.34v9.13
	c21.01,0,35.87,12.18,50.44,26.7c0.77-0.78,1.53-1.57,2.3-2.36C230.08,249.01,231.72,247.32,233.39,245.63"/>
<path class="st4" d="M407.11,233.25l0,47.7c1.42,0.46,2.83,0.83,4.25,1.12l0-49.95C409.94,232.41,408.53,232.79,407.11,233.25"/>
<path class="st4" d="M386.83,245.4v23.39c1.4,1.19,2.82,2.32,4.25,3.4v-30.2C389.65,243.07,388.24,244.21,386.83,245.4"/>
<path class="st4" d="M336.05,229.55c-12.29-8.3-24.92-12.34-38.61-12.34c-28.46,0-46.55,18.56-64.03,36.52
	c-17.08,17.54-33.21,34.1-57.72,34.1v9.13c13.68,0,26.31-4.03,38.61-12.34c10.44-7.05,19.48-16.33,28.23-25.31
	c16.51-16.95,32.11-32.97,54.92-32.97c21.01,0,35.87,12.18,50.44,26.7c0.77-0.78,1.53-1.57,2.3-2.36c1.64-1.68,3.28-3.37,4.95-5.06
	C349.17,239.79,342.91,234.19,336.05,229.55"/>
<path class="st4" d="M363.17,268.57c15.19,15.02,31.87,28.4,56.03,28.4v-9.13c-19.96,0-34.4-12.26-48.76-26.69
	c-0.39,0.41-0.79,0.81-1.19,1.22C367.24,264.43,365.22,266.5,363.17,268.57"/>
<path class="st4" d="M355.17,253.74c-17.08,17.54-33.21,34.1-57.72,34.1c-19.96,0-34.4-12.27-48.76-26.69
	c-0.39,0.41-0.79,0.81-1.19,1.22c-2.01,2.06-4.03,4.14-6.08,6.2c15.19,15.03,31.87,28.4,56.03,28.4c13.68,0,26.31-4.04,38.61-12.34
	c10.44-7.05,19.48-16.33,28.23-25.31c16.51-16.95,32.11-32.97,54.92-32.97v-9.14C390.73,217.22,372.65,235.78,355.17,253.74"/>
<path class="st4" d="M309.96,233.25v47.7c-1.41,0.46-2.83,0.83-4.25,1.12v-49.95C307.13,232.41,308.55,232.79,309.96,233.25"/>
<path class="st4" d="M188.21,233.25v47.7c-1.42,0.46-2.83,0.83-4.25,1.12l0-49.95C185.38,232.41,186.79,232.79,188.21,233.25"/>
<path class="st4" d="M208.49,245.4l0,23.39c-1.41,1.19-2.82,2.32-4.25,3.4l0-30.2C205.67,243.07,207.08,244.21,208.49,245.4"/>
</svg>
